<svg id="my-svg" width="100%" xmlns="http://www.w3.org/2000/svg" xmlns:xlink="http://www.w3.org/1999/xlink" class="classDiagram" style="max-width: 1976.03px; background-color: white;" viewBox="0 0 1976.03125 964.1499633789062" role="graphics-document document" aria-roledescription="class"><style>#my-svg{font-family:"trebuchet ms",verdana,arial,sans-serif;font-size:16px;fill:#333;}@keyframes edge-animation-frame{from{stroke-dashoffset:0;}}@keyframes dash{to{stroke-dashoffset:0;}}#my-svg .edge-animation-slow{stroke-dasharray:9,5!important;stroke-dashoffset:900;animation:dash 50s linear infinite;stroke-linecap:round;}#my-svg .edge-animation-fast{stroke-dasharray:9,5!important;stroke-dashoffset:900;animation:dash 20s linear infinite;stroke-linecap:round;}#my-svg .error-icon{fill:#552222;}#my-svg .error-text{fill:#552222;stroke:#552222;}#my-svg .edge-thickness-normal{stroke-width:1px;}#my-svg .edge-thickness-thick{stroke-width:3.5px;}#my-svg .edge-pattern-solid{stroke-dasharray:0;}#my-svg .edge-thickness-invisible{stroke-width:0;fill:none;}#my-svg .edge-pattern-dashed{stroke-dasharray:3;}#my-svg .edge-pattern-dotted{stroke-dasharray:2;}#my-svg .marker{fill:#333333;stroke:#333333;}#my-svg .marker.cross{stroke:#333333;}#my-svg svg{font-family:"trebuchet ms",verdana,arial,sans-serif;font-size:16px;}#my-svg p{margin:0;}#my-svg g.classGroup text{fill:#9370DB;stroke:none;font-family:"trebuchet ms",verdana,arial,sans-serif;font-size:10px;}#my-svg g.classGroup text .title{font-weight:bolder;}#my-svg .cluster-label text{fill:#333;}#my-svg .cluster-label span{color:#333;}#my-svg .cluster-label span p{background-color:transparent;}#my-svg .cluster rect{fill:#ffffde;stroke:#aaaa33;stroke-width:1px;}#my-svg .cluster text{fill:#333;}#my-svg .cluster span{color:#333;}#my-svg .nodeLabel,#my-svg .edgeLabel{color:#131300;}#my-svg .noteLabel .nodeLabel,#my-svg .noteLabel .edgeLabel{color:black;}#my-svg .edgeLabel .label rect{fill:#ECECFF;}#my-svg .label text{fill:#131300;}#my-svg .labelBkg{background:#ECECFF;}#my-svg .edgeLabel .label span{background:#ECECFF;}#my-svg .classTitle{font-weight:bolder;}#my-svg .node rect,#my-svg .node circle,#my-svg .node ellipse,#my-svg .node polygon,#my-svg .node path{fill:#ECECFF;stroke:#9370DB;stroke-width:1;}#my-svg .divider{stroke:#9370DB;stroke-width:1;}#my-svg g.clickable{cursor:pointer;}#my-svg g.classGroup rect{fill:#ECECFF;stroke:#9370DB;}#my-svg g.classGroup line{stroke:#9370DB;stroke-width:1;}#my-svg .classLabel .box{stroke:none;stroke-width:0;fill:#ECECFF;opacity:0.5;}#my-svg .classLabel .label{fill:#9370DB;font-size:10px;}#my-svg .relation{stroke:#333333;stroke-width:1;fill:none;}#my-svg .dashed-line{stroke-dasharray:3;}#my-svg .dotted-line{stroke-dasharray:1 2;}#my-svg [id$="-compositionStart"],#my-svg .composition{fill:#333333!important;stroke:#333333!important;stroke-width:1;}#my-svg [id$="-compositionEnd"],#my-svg .composition{fill:#333333!important;stroke:#333333!important;stroke-width:1;}#my-svg [id$="-dependencyStart"],#my-svg .dependency{fill:#333333!important;stroke:#333333!important;stroke-width:1;}#my-svg [id$="-dependencyEnd"],#my-svg .dependency{fill:#333333!important;stroke:#333333!important;stroke-width:1;}#my-svg [id$="-extensionStart"],#my-svg .extension{fill:transparent!important;stroke:#333333!important;stroke-width:1;}#my-svg [id$="-extensionEnd"],#my-svg .extension{fill:transparent!important;stroke:#333333!important;stroke-width:1;}#my-svg [id$="-aggregationStart"],#my-svg .aggregation{fill:transparent!important;stroke:#333333!important;stroke-width:1;}#my-svg [id$="-aggregationEnd"],#my-svg .aggregation{fill:transparent!important;stroke:#333333!important;stroke-width:1;}#my-svg [id$="-lollipopStart"],#my-svg .lollipop{fill:#ECECFF!important;stroke:#333333!important;stroke-width:1;}#my-svg [id$="-lollipopEnd"],#my-svg .lollipop{fill:#ECECFF!important;stroke:#333333!important;stroke-width:1;}#my-svg .edgeTerminals{font-size:11px;line-height:initial;}#my-svg .classTitleText{text-anchor:middle;font-size:18px;fill:#333;}#my-svg .edgeLabel[data-look="neo"]{background-color:rgba(232,232,232, 0.8);text-align:center;}#my-svg .edgeLabel[data-look="neo"] p{background-color:rgba(232,232,232, 0.8);}#my-svg .edgeLabel[data-look="neo"] rect{opacity:0.5;background-color:rgba(232,232,232, 0.8);fill:rgba(232,232,232, 0.8);}#my-svg .label-icon{display:inline-block;height:1em;overflow:visible;vertical-align:-0.125em;}#my-svg .node .label-icon path{fill:currentColor;stroke:revert;stroke-width:revert;}#my-svg .node .neo-node{stroke:#9370DB;}#my-svg [data-look="neo"].node rect,#my-svg [data-look="neo"].cluster rect,#my-svg [data-look="neo"].node polygon{stroke:#9370DB;filter:drop-shadow(1px 2px 2px rgba(185, 185, 185, 1));}#my-svg [data-look="neo"].node path{stroke:#9370DB;stroke-width:1px;}#my-svg [data-look="neo"].node .outer-path{filter:drop-shadow(1px 2px 2px rgba(185, 185, 185, 1));}#my-svg [data-look="neo"].node .neo-line path{stroke:#9370DB;filter:none;}#my-svg [data-look="neo"].node circle{stroke:#9370DB;filter:drop-shadow(1px 2px 2px rgba(185, 185, 185, 1));}#my-svg [data-look="neo"].node circle .state-start{fill:#000000;}#my-svg [data-look="neo"].icon-shape .icon{fill:#9370DB;filter:drop-shadow(1px 2px 2px rgba(185, 185, 185, 1));}#my-svg [data-look="neo"].icon-shape .icon-neo path{stroke:#9370DB;filter:drop-shadow(1px 2px 2px rgba(185, 185, 185, 1));}#my-svg :root{--mermaid-font-family:"trebuchet ms",verdana,arial,sans-serif;}</style><g><defs><marker id="my-svg_class-aggregationStart" class="marker aggregation class" refX="18" refY="7" markerWidth="190" markerHeight="240" orient="auto"><path d="M 18,7 L9,13 L1,7 L9,1 Z"/></marker></defs><defs><marker id="my-svg_class-aggregationEnd" class="marker aggregation class" refX="1" refY="7" markerWidth="20" markerHeight="28" orient="auto"><path d="M 18,7 L9,13 L1,7 L9,1 Z"/></marker></defs><defs><marker id="my-svg_class-aggregationStart-margin" class="marker aggregation class" refX="15" refY="7" markerWidth="190" markerHeight="240" orient="auto" markerUnits="userSpaceOnUse"><path d="M 18,7 L9,13 L1,7 L9,1 Z" style="stroke-width: 2;"/></marker></defs><defs><marker id="my-svg_class-aggregationEnd-margin" class="marker aggregation class" refX="1" refY="7" markerWidth="20" markerHeight="28" orient="auto" markerUnits="userSpaceOnUse"><path d="M 18,7 L9,13 L1,7 L9,1 Z" style="stroke-width: 2;"/></marker></defs><defs><marker id="my-svg_class-extensionStart" class="marker extension class" refX="18" refY="7" markerWidth="20" markerHeight="28" orient="auto" markerUnits="userSpaceOnUse"><path d="M 1,7 L18,13 V 1 Z"/></marker></defs><defs><marker id="my-svg_class-extensionEnd" class="marker extension class" refX="1" refY="7" markerWidth="20" markerHeight="28" orient="auto"><path d="M 1,1 V 13 L18,7 Z"/></marker></defs><marker id="my-svg_class-extensionStart-margin" class="marker extension class" refX="18" refY="7" markerWidth="20" markerHeight="28" orient="auto" markerUnits="userSpaceOnUse" viewBox="0 0 20 14"><polygon points="10,7 18,13 18,1" style="stroke-width: 2; stroke-dasharray: 0;"/></marker><defs><marker id="my-svg_class-extensionEnd-margin" class="marker extension class" refX="9" refY="7" markerWidth="20" markerHeight="28" orient="auto" markerUnits="userSpaceOnUse" viewBox="0 0 20 14"><polygon points="10,1 10,13 18,7" style="stroke-width: 2; stroke-dasharray: 0;"/></marker></defs><defs><marker id="my-svg_class-compositionStart" class="marker composition class" refX="18" refY="7" markerWidth="190" markerHeight="240" orient="auto"><path d="M 18,7 L9,13 L1,7 L9,1 Z"/></marker></defs><defs><marker id="my-svg_class-compositionEnd" class="marker composition class" refX="1" refY="7" markerWidth="20" markerHeight="28" orient="auto"><path d="M 18,7 L9,13 L1,7 L9,1 Z"/></marker></defs><defs><marker id="my-svg_class-compositionStart-margin" class="marker composition class" refX="15" refY="7" markerWidth="190" markerHeight="240" orient="auto" markerUnits="userSpaceOnUse"><path viewBox="0 0 15 15" d="M 18,7 L9,13 L1,7 L9,1 Z" style="stroke-width: 0;"/></marker></defs><defs><marker id="my-svg_class-compositionEnd-margin" class="marker composition class" refX="3.5" refY="7" markerWidth="20" markerHeight="28" orient="auto" markerUnits="userSpaceOnUse"><path d="M 18,7 L9,13 L1,7 L9,1 Z" style="stroke-width: 0;"/></marker></defs><defs><marker id="my-svg_class-dependencyStart" class="marker dependency class" refX="6" refY="7" markerWidth="190" markerHeight="240" orient="auto"><path d="M 5,7 L9,13 L1,7 L9,1 Z"/></marker></defs><defs><marker id="my-svg_class-dependencyEnd" class="marker dependency class" refX="13" refY="7" markerWidth="20" markerHeight="28" orient="auto"><path d="M 18,7 L9,13 L14,7 L9,1 Z"/></marker></defs><defs><marker id="my-svg_class-dependencyStart-margin" class="marker dependency class" refX="4" refY="7" markerWidth="190" markerHeight="240" orient="auto" markerUnits="userSpaceOnUse"><path d="M 5,7 L9,13 L1,7 L9,1 Z" style="stroke-width: 0;"/></marker></defs><defs><marker id="my-svg_class-dependencyEnd-margin" class="marker dependency class" refX="16" refY="7" markerWidth="20" markerHeight="28" orient="auto" markerUnits="userSpaceOnUse"><path d="M 18,7 L9,13 L14,7 L9,1 Z" style="stroke-width: 0;"/></marker></defs><defs><marker id="my-svg_class-lollipopStart" class="marker lollipop class" refX="13" refY="7" markerWidth="190" markerHeight="240" orient="auto"><circle fill="transparent" cx="7" cy="7" r="6"/></marker></defs><defs><marker id="my-svg_class-lollipopEnd" class="marker lollipop class" refX="1" refY="7" markerWidth="190" markerHeight="240" orient="auto"><circle fill="transparent" cx="7" cy="7" r="6"/></marker></defs><defs><marker id="my-svg_class-lollipopStart-margin" class="marker lollipop class" refX="13" refY="7" markerWidth="190" markerHeight="240" orient="auto" markerUnits="userSpaceOnUse"><circle fill="transparent" cx="7" cy="7" r="6" stroke-width="2"/></marker></defs><defs><marker id="my-svg_class-lollipopEnd-margin" class="marker lollipop class" refX="1" refY="7" markerWidth="190" markerHeight="240" orient="auto" markerUnits="userSpaceOnUse"><circle fill="transparent" cx="7" cy="7" r="6" stroke-width="2"/></marker></defs><g class="root"><g class="clusters"/><g class="edgePaths"><path d="M1197.078,125L1197.078,144.667C1197.078,164.333,1197.078,203.667,1208.43,231.344C1219.781,259.021,1242.484,275.043,1253.836,283.053L1265.188,291.064" id="my-svg-edgeNote0" class="edge-thickness-normal edge-pattern-dotted relation" style="fill: none;;;fill: none" data-edge="true" data-et="edge" data-id="edgeNote0" data-points="W3sieCI6MTE5Ny4wNzgxMjUsInkiOjEyNX0seyJ4IjoxMTk3LjA3ODEyNSwieSI6MjQzfSx7IngiOjEyNjUuMTg3NSwieSI6MjkxLjA2Mzc4MjE1Mzc4OTkzfV0=" data-look="classic"/><path d="M406.555,125L406.555,144.667C406.555,164.333,406.555,203.667,406.555,235.5C406.555,267.333,406.555,291.667,406.555,303.833L406.555,316" id="my-svg-edgeNote1" class="edge-thickness-normal edge-pattern-dotted relation" style="fill: none;;;fill: none" data-edge="true" data-et="edge" data-id="edgeNote1" data-points="W3sieCI6NDA2LjU1NDY4NzUsInkiOjEyNX0seyJ4Ijo0MDYuNTU0Njg3NSwieSI6MjQzfSx7IngiOjQwNi41NTQ2ODc1LCJ5IjozMTZ9XQ==" data-look="classic"/><path d="M1778.539,223.25L1778.539,226.542C1778.539,229.833,1778.539,236.417,1755.773,252.388C1733.008,268.36,1687.477,293.719,1664.711,306.399L1641.945,319.079" id="my-svg-id_ILanguageService_LanguageService_1" class="edge-thickness-normal edge-pattern-dashed relation" style=";;;" data-edge="true" data-et="edge" data-id="id_ILanguageService_LanguageService_1" data-points="W3sieCI6MTc3OC41MzkwNjI1LCJ5IjoyMDZ9LHsieCI6MTc3OC41MzkwNjI1LCJ5IjoyNDN9LHsieCI6MTY0MS45NDUzMTI1LCJ5IjozMTkuMDc4NjEyMzgzMjUzNH1d" data-look="classic" marker-start="url(#my-svg_class-extensionStart)"/><path d="M1265.188,482.746L1199.849,503.122C1134.511,523.497,1003.835,564.249,938.497,595.291C873.159,626.333,873.159,647.667,873.159,658.333L873.159,669" id="my-svg-id_LanguageService_ILanguageRepository_2" class="edge-thickness-normal edge-pattern-solid relation" style=";;;" data-edge="true" data-et="edge" data-id="id_LanguageService_ILanguageRepository_2" data-points="W3sieCI6MTI2NS4xODc1LCJ5Ijo0ODIuNzQ1OTA0Njg0NDM3OX0seyJ4Ijo4NzMuMTU4NTkzNzQ5NjI3NSwieSI6NjA1fSx7IngiOjg3My4xNTg1OTM3NDk2Mjc1LCJ5Ijo2NzV9XQ==" data-look="classic" marker-end="url(#my-svg_class-dependencyEnd)"/><path d="M1365.277,568L1361.496,574.167C1357.715,580.333,1350.153,592.667,1346.372,624.992C1342.591,657.317,1342.591,709.633,1342.591,735.792L1342.591,761.95" id="my-svg-LanguageService-cyclic-special-1" class="edge-thickness-normal edge-pattern-solid relation" style=";;;" data-edge="true" data-et="edge" data-id="LanguageService-cyclic-special-1" data-points="W3sieCI6MTM2NS4yNzY5MDM0ODc4NjU0LCJ5Ijo1Njh9LHsieCI6MTM0Mi41OTE0MDYyNTAzNzI1LCJ5Ijo2MDV9LHsieCI6MTM0Mi41OTE0MDYyNTAzNzI1LCJ5Ijo3NjEuOTQ5OTk5OTk5MjU0OX1d" data-look="classic"/><path d="M1342.591,762.05L1342.591,788.208C1342.591,814.367,1342.591,866.683,1391.038,899.016C1439.485,931.348,1536.378,943.696,1584.825,949.87L1633.272,956.044" id="my-svg-LanguageService-cyclic-special-mid" class="edge-thickness-normal edge-pattern-solid relation" style=";;;" data-edge="true" data-et="edge" data-id="LanguageService-cyclic-special-mid" data-points="W3sieCI6MTM0Mi41OTE0MDYyNTAzNzI1LCJ5Ijo3NjIuMDUwMDAwMDAwNzQ1MX0seyJ4IjoxMzQyLjU5MTQwNjI1MDM3MjUsInkiOjkxOX0seyJ4IjoxNjMzLjI3MTg3NDk5OTYyNzUsInkiOjk1Ni4wNDM2MjgxMTk0Nzc4fV0=" data-look="classic"/><path d="M1633.368,956L1639.067,949.833C1644.767,943.667,1656.165,931.333,1661.865,899C1667.564,866.667,1667.564,814.333,1667.564,762C1667.564,709.667,1667.564,657.333,1661.037,625.646C1654.509,593.958,1641.455,582.916,1634.927,577.396L1628.4,571.875" id="my-svg-LanguageService-cyclic-special-2" class="edge-thickness-normal edge-pattern-solid relation" style=";;;" data-edge="true" data-et="edge" data-id="LanguageService-cyclic-special-2" data-points="W3sieCI6MTYzMy4zNjgwODU3ODA0MTI1LCJ5Ijo5NTZ9LHsieCI6MTY2Ny41NjQwNjI1MDAzNzI1LCJ5Ijo5MTl9LHsieCI6MTY2Ny41NjQwNjI1MDAzNzI1LCJ5Ijo3NjJ9LHsieCI6MTY2Ny41NjQwNjI1MDAzNzI1LCJ5Ijo2MDV9LHsieCI6MTYyMy44MTg2ODUyNTU4MjEzLCJ5Ijo1Njh9XQ==" data-look="classic" marker-end="url(#my-svg_class-dependencyEnd)"/><path d="M406.555,532L406.555,544.167C406.555,556.333,406.555,580.667,406.555,598C406.555,615.333,406.555,625.667,406.555,630.833L406.555,636" id="my-svg-id_ParametrosContext_Parametros_4" class="edge-thickness-normal edge-pattern-dashed relation" style=";;;" data-edge="true" data-et="edge" data-id="id_ParametrosContext_Parametros_4" data-points="W3sieCI6NDA2LjU1NDY4NzUsInkiOjUzMn0seyJ4Ijo0MDYuNTU0Njg3NSwieSI6NjA1fSx7IngiOjQwNi41NTQ2ODc1LCJ5Ijo2NDJ9XQ==" data-look="classic" marker-end="url(#my-svg_class-dependencyEnd)"/></g><g class="edgeLabels"><g class="edgeLabel"><g class="label" data-id="edgeNote0" transform="translate(0, 0)"><foreignObject width="0" height="0"><div xmlns="http://www.w3.org/1999/xhtml" class="labelBkg" style="display: table-cell; white-space: nowrap; line-height: 1.5; max-width: 200px; text-align: center;"><span class="edgeLabel"></span></div></foreignObject></g></g><g class="edgeLabel"><g class="label" data-id="edgeNote1" transform="translate(0, 0)"><foreignObject width="0" height="0"><div xmlns="http://www.w3.org/1999/xhtml" class="labelBkg" style="display: table-cell; white-space: nowrap; line-height: 1.5; max-width: 200px; text-align: center;"><span class="edgeLabel"></span></div></foreignObject></g></g><g class="edgeLabel" transform="translate(1778.5390625, 243)"><g class="label" data-id="id_ILanguageService_LanguageService_1" transform="translate(-42.8515625, -12)"><foreignObject width="85.703125" height="24"><div xmlns="http://www.w3.org/1999/xhtml" class="labelBkg" style="display: table-cell; white-space: nowrap; line-height: 1.5; max-width: 200px; text-align: center;"><span class="edgeLabel"><p>implementa</p></span></div></foreignObject></g></g><g class="edgeLabel" transform="translate(873.1585937496275, 605)"><g class="label" data-id="id_LanguageService_ILanguageRepository_2" transform="translate(-20.421875, -12)"><foreignObject width="40.84375" height="24"><div xmlns="http://www.w3.org/1999/xhtml" class="labelBkg" style="display: table-cell; white-space: nowrap; line-height: 1.5; max-width: 200px; text-align: center;"><span class="edgeLabel"><p>_repo</p></span></div></foreignObject></g></g><g class="edgeLabel"><g class="label" data-id="LanguageService-cyclic-special-1" transform="translate(0, 0)"><foreignObject width="0" height="0"><div xmlns="http://www.w3.org/1999/xhtml" class="labelBkg" style="display: table-cell; white-space: nowrap; line-height: 1.5; max-width: 200px; text-align: center;"><span class="edgeLabel"></span></div></foreignObject></g></g><g class="edgeLabel" transform="translate(1342.5914062503725, 919)"><g class="label" data-id="LanguageService-cyclic-special-mid" transform="translate(-48.484375, -12)"><foreignObject width="96.96875" height="24"><div xmlns="http://www.w3.org/1999/xhtml" class="labelBkg" style="display: table-cell; white-space: nowrap; line-height: 1.5; max-width: 200px; text-align: center;"><span class="edgeLabel"><p>Current (self)</p></span></div></foreignObject></g></g><g class="edgeLabel"><g class="label" data-id="LanguageService-cyclic-special-2" transform="translate(0, 0)"><foreignObject width="0" height="0"><div xmlns="http://www.w3.org/1999/xhtml" class="labelBkg" style="display: table-cell; white-space: nowrap; line-height: 1.5; max-width: 200px; text-align: center;"><span class="edgeLabel"></span></div></foreignObject></g></g><g class="edgeLabel" transform="translate(406.5546875, 605)"><g class="label" data-id="id_ParametrosContext_Parametros_4" transform="translate(-33.7578125, -12)"><foreignObject width="67.515625" height="24"><div xmlns="http://www.w3.org/1999/xhtml" class="labelBkg" style="display: table-cell; white-space: nowrap; line-height: 1.5; max-width: 200px; text-align: center;"><span class="edgeLabel"><p>Cargar(p)</p></span></div></foreignObject></g></g></g><g class="nodes"><g class="node default" id="my-svg-classId-ILanguageService-0" data-look="classic" transform="translate(1778.5390625, 107)"><g class="basic label-container outer-path"><path d="M-189.4921875 -99 L189.4921875 -99 L189.4921875 99 L-189.4921875 99" stroke="none" stroke-width="0" fill="#ECECFF" style=""/><path d="M-189.4921875 -99 C-106.40732860296916 -99, -23.322469705938317 -99, 189.4921875 -99 M-189.4921875 -99 C-108.49811459271172 -99, -27.50404168542343 -99, 189.4921875 -99 M189.4921875 -99 C189.4921875 -31.499872083207322, 189.4921875 36.000255833585356, 189.4921875 99 M189.4921875 -99 C189.4921875 -23.865394228804377, 189.4921875 51.26921154239125, 189.4921875 99 M189.4921875 99 C38.497934170759805 99, -112.49631915848039 99, -189.4921875 99 M189.4921875 99 C58.41006781686818 99, -72.67205186626364 99, -189.4921875 99 M-189.4921875 99 C-189.4921875 49.26190762845146, -189.4921875 -0.4761847430970789, -189.4921875 -99 M-189.4921875 99 C-189.4921875 47.8145240165845, -189.4921875 -3.370951966831001, -189.4921875 -99" stroke="#9370DB" stroke-width="1.3" fill="none" stroke-dasharray="0 0" style=""/></g><g class="annotation-group text" transform="translate(-41.171875, -75)"><g class="label" style="" transform="translate(0,-12)"><foreignObject width="82.34375" height="24"><div xmlns="http://www.w3.org/1999/xhtml" style="display: table-cell; white-space: nowrap; line-height: 1.5; max-width: 122px; text-align: center;"><span class="nodeLabel markdown-node-label" style=""><p>«interface»</p></span></div></foreignObject></g></g><g class="label-group text" transform="translate(-64.90625, -51)"><g class="label" style="font-weight: bolder" transform="translate(0,-12)"><foreignObject width="129.8125" height="24"><div xmlns="http://www.w3.org/1999/xhtml" style="display: table-cell; white-space: nowrap; line-height: 1.5; max-width: 166px; text-align: center;"><span class="nodeLabel markdown-node-label" style=""><p>ILanguageService</p></span></div></foreignObject></g></g><g class="members-group text" transform="translate(-177.4921875, -3)"/><g class="methods-group text" transform="translate(-177.4921875, 27)"><g class="label" style="" transform="translate(0,-12)"><foreignObject width="125.703125" height="24"><div xmlns="http://www.w3.org/1999/xhtml" style="display: table-cell; white-space: nowrap; line-height: 1.5; max-width: 170px; text-align: center;"><span class="nodeLabel markdown-node-label" style=""><p>+T(string) : string</p></span></div></foreignObject></g><g class="label" style="" transform="translate(0,12)"><foreignObject width="290.078125" height="24"><div xmlns="http://www.w3.org/1999/xhtml" style="display: table-cell; white-space: nowrap; line-height: 1.5; max-width: 370px; text-align: center;"><span class="nodeLabel markdown-node-label" style=""><p>+Languages() : IReadOnlyList&lt;Language&gt;</p></span></div></foreignObject></g><g class="label" style="" transform="translate(0,36)"><foreignObject width="136.34375" height="24"><div xmlns="http://www.w3.org/1999/xhtml" style="display: table-cell; white-space: nowrap; line-height: 1.5; max-width: 180px; text-align: center;"><span class="nodeLabel markdown-node-label" style=""><p>+SetCulture(string)</p></span></div></foreignObject></g></g><g class="divider" style=""><path d="M-189.4921875 -27 C-60.88582178801846 -26.99966065522962, 67.72054392396308 -26.99932131045924, 189.4921875 -26.999 M-189.4921875 -27 C-68.0801299438999 -26.999679638355655, 53.33192761220019 -26.99935927671131, 189.4921875 -26.999" stroke="#9370DB" stroke-width="1.3" fill="none" stroke-dasharray="0 0" style=""/></g><g class="divider" style=""><path d="M-189.4921875 -3 C-81.40305780451578 -2.999714792648917, 26.686071890968435 -2.9994295852978348, 189.4921875 -2.999 M-189.4921875 -3 C-65.37170296048534 -2.9996724918156863, 58.74878157902933 -2.9993449836313726, 189.4921875 -2.999" stroke="#9370DB" stroke-width="1.3" fill="none" stroke-dasharray="0 0" style=""/></g></g><g class="node default" id="my-svg-classId-LanguageService-1" data-look="classic" transform="translate(1453.56640625, 424)"><g class="basic label-container outer-path"><path d="M-188.37890625 -144 L188.37890625 -144 L188.37890625 144 L-188.37890625 144" stroke="none" stroke-width="0" fill="#ECECFF" style=""/><path d="M-188.37890625 -144 C-49.71671746082362 -144, 88.94547132835277 -144, 188.37890625 -144 M-188.37890625 -144 C-75.87089661698785 -144, 36.6371130160243 -144, 188.37890625 -144 M188.37890625 -144 C188.37890625 -36.427097791031755, 188.37890625 71.14580441793649, 188.37890625 144 M188.37890625 -144 C188.37890625 -56.250199522866126, 188.37890625 31.49960095426775, 188.37890625 144 M188.37890625 144 C48.93275153622139 144, -90.51340317755722 144, -188.37890625 144 M188.37890625 144 C81.46489690334478 144, -25.44911244331044 144, -188.37890625 144 M-188.37890625 144 C-188.37890625 48.24746499326878, -188.37890625 -47.50507001346244, -188.37890625 -144 M-188.37890625 144 C-188.37890625 59.63363058896128, -188.37890625 -24.732738822077437, -188.37890625 -144" stroke="#9370DB" stroke-width="1.3" fill="none" stroke-dasharray="0 0" style=""/></g><g class="annotation-group text" transform="translate(0, -120)"/><g class="label-group text" transform="translate(-62.6796875, -120)"><g class="label" style="font-weight: bolder" transform="translate(0,-12)"><foreignObject width="125.359375" height="24"><div xmlns="http://www.w3.org/1999/xhtml" style="display: table-cell; white-space: nowrap; line-height: 1.5; max-width: 162px; text-align: center;"><span class="nodeLabel markdown-node-label" style=""><p>LanguageService</p></span></div></foreignObject></g></g><g class="members-group text" transform="translate(-176.37890625, -72)"><g class="label" style="text-decoration:underline;" transform="translate(0,-12)"><foreignObject width="191.109375" height="24"><div xmlns="http://www.w3.org/1999/xhtml" style="display: table-cell; white-space: nowrap; line-height: 1.5; max-width: 234px; text-align: center;"><span class="nodeLabel markdown-node-label" style=""><p>+ILanguageService Current</p></span></div></foreignObject></g><g class="label" style="" transform="translate(0,12)"><foreignObject width="198.140625" height="24"><div xmlns="http://www.w3.org/1999/xhtml" style="display: table-cell; white-space: nowrap; line-height: 1.5; max-width: 240px; text-align: center;"><span class="nodeLabel markdown-node-label" style=""><p>-ILanguageRepository _repo</p></span></div></foreignObject></g><g class="label" style="" transform="translate(0,36)"><foreignObject width="146.671875" height="24"><div xmlns="http://www.w3.org/1999/xhtml" style="display: table-cell; white-space: nowrap; line-height: 1.5; max-width: 187px; text-align: center;"><span class="nodeLabel markdown-node-label" style=""><p>-string _cultureCode</p></span></div></foreignObject></g></g><g class="methods-group text" transform="translate(-176.37890625, 24)"><g class="label" style="" transform="translate(0,-12)"><foreignObject width="266.859375" height="24"><div xmlns="http://www.w3.org/1999/xhtml" style="display: table-cell; white-space: nowrap; line-height: 1.5; max-width: 297px; text-align: center;"><span class="nodeLabel markdown-node-label" style=""><p>-LanguageService(repo, cultureCode)</p></span></div></foreignObject></g><g class="label" style="text-decoration:underline;" transform="translate(0,12)"><foreignObject width="213.171875" height="24"><div xmlns="http://www.w3.org/1999/xhtml" style="display: table-cell; white-space: nowrap; line-height: 1.5; max-width: 247px; text-align: center;"><span class="nodeLabel markdown-node-label" style=""><p>+Initialize(repo, cultureCode)</p></span></div></foreignObject></g><g class="label" style="" transform="translate(0,36)"><foreignObject width="136.34375" height="24"><div xmlns="http://www.w3.org/1999/xhtml" style="display: table-cell; white-space: nowrap; line-height: 1.5; max-width: 180px; text-align: center;"><span class="nodeLabel markdown-node-label" style=""><p>+SetCulture(string)</p></span></div></foreignObject></g><g class="label" style="" transform="translate(0,60)"><foreignObject width="125.703125" height="24"><div xmlns="http://www.w3.org/1999/xhtml" style="display: table-cell; white-space: nowrap; line-height: 1.5; max-width: 170px; text-align: center;"><span class="nodeLabel markdown-node-label" style=""><p>+T(string) : string</p></span></div></foreignObject></g><g class="label" style="" transform="translate(0,84)"><foreignObject width="290.078125" height="24"><div xmlns="http://www.w3.org/1999/xhtml" style="display: table-cell; white-space: nowrap; line-height: 1.5; max-width: 370px; text-align: center;"><span class="nodeLabel markdown-node-label" style=""><p>+Languages() : IReadOnlyList&lt;Language&gt;</p></span></div></foreignObject></g></g><g class="divider" style=""><path d="M-188.37890625 -96 C-94.29541588971284 -95.99975028124902, -0.21192552942568454 -95.99950056249803, 188.37890625 -95.999 M-188.37890625 -96 C-51.826470422827555 -95.99963755911278, 84.72596540434489 -95.99927511822557, 188.37890625 -95.999" stroke="#9370DB" stroke-width="1.3" fill="none" stroke-dasharray="0 0" style=""/></g><g class="divider" style=""><path d="M-188.37890625 0 C-74.4448412402013 0.000302406642224038, 39.4892237695974 0.000604813284448076, 188.37890625 0.001 M-188.37890625 0 C-83.2599554705765 0.00027900934577016503, 21.858995308847 0.0005580186915403301, 188.37890625 0.001" stroke="#9370DB" stroke-width="1.3" fill="none" stroke-dasharray="0 0" style=""/></g></g><g class="node default" id="my-svg-classId-ILanguageRepository-2" data-look="classic" transform="translate(873.1585937496275, 762)"><g class="basic label-container outer-path"><path d="M-240.9765625 -87 L240.9765625 -87 L240.9765625 87 L-240.9765625 87" stroke="none" stroke-width="0" fill="#ECECFF" style=""/><path d="M-240.9765625 -87 C-121.53365689661788 -87, -2.090751293235769 -87, 240.9765625 -87 M-240.9765625 -87 C-133.1235233989984 -87, -25.270484297996802 -87, 240.9765625 -87 M240.9765625 -87 C240.9765625 -19.92358771454336, 240.9765625 47.15282457091328, 240.9765625 87 M240.9765625 -87 C240.9765625 -25.53496288651523, 240.9765625 35.93007422696954, 240.9765625 87 M240.9765625 87 C135.59134894574476 87, 30.20613539148954 87, -240.9765625 87 M240.9765625 87 C139.21420406121257 87, 37.45184562242514 87, -240.9765625 87 M-240.9765625 87 C-240.9765625 46.969899613228925, -240.9765625 6.9397992264578505, -240.9765625 -87 M-240.9765625 87 C-240.9765625 36.13852812478134, -240.9765625 -14.722943750437324, -240.9765625 -87" stroke="#9370DB" stroke-width="1.3" fill="none" stroke-dasharray="0 0" style=""/></g><g class="annotation-group text" transform="translate(-41.171875, -63)"><g class="label" style="" transform="translate(0,-12)"><foreignObject width="82.34375" height="24"><div xmlns="http://www.w3.org/1999/xhtml" style="display: table-cell; white-space: nowrap; line-height: 1.5; max-width: 122px; text-align: center;"><span class="nodeLabel markdown-node-label" style=""><p>«interface»</p></span></div></foreignObject></g></g><g class="label-group text" transform="translate(-77.140625, -39)"><g class="label" style="font-weight: bolder" transform="translate(0,-12)"><foreignObject width="154.28125" height="24"><div xmlns="http://www.w3.org/1999/xhtml" style="display: table-cell; white-space: nowrap; line-height: 1.5; max-width: 190px; text-align: center;"><span class="nodeLabel markdown-node-label" style=""><p>ILanguageRepository</p></span></div></foreignObject></g></g><g class="members-group text" transform="translate(-228.9765625, 9)"/><g class="methods-group text" transform="translate(-228.9765625, 39)"><g class="label" style="" transform="translate(0,-12)"><foreignObject width="264.15625" height="24"><div xmlns="http://www.w3.org/1999/xhtml" style="display: table-cell; white-space: nowrap; line-height: 1.5; max-width: 295px; text-align: center;"><span class="nodeLabel markdown-node-label" style=""><p>+GetString(key, cultureCode) : string</p></span></div></foreignObject></g><g class="label" style="" transform="translate(0,12)"><foreignObject width="380.8125" height="24"><div xmlns="http://www.w3.org/1999/xhtml" style="display: table-cell; white-space: nowrap; line-height: 1.5; max-width: 454px; text-align: center;"><span class="nodeLabel markdown-node-label" style=""><p>+GetAvailableLanguages() : IReadOnlyList&lt;Language&gt;</p></span></div></foreignObject></g></g><g class="divider" style=""><path d="M-240.9765625 -15 C-50.88112677449723 -14.999605572770744, 139.21430895100553 -14.999211145541487, 240.9765625 -14.999 M-240.9765625 -15 C-102.4806448210665 -14.999712636124771, 36.01527285786699 -14.99942527224954, 240.9765625 -14.999" stroke="#9370DB" stroke-width="1.3" fill="none" stroke-dasharray="0 0" style=""/></g><g class="divider" style=""><path d="M-240.9765625 9 C-73.08211415819193 9.000348362609625, 94.81233418361614 9.00069672521925, 240.9765625 9.001 M-240.9765625 9 C-58.21345111991937 9.000379213458528, 124.54966026016126 9.000758426917058, 240.9765625 9.001" stroke="#9370DB" stroke-width="1.3" fill="none" stroke-dasharray="0 0" style=""/></g></g><g class="node default" id="my-svg-classId-ParametrosContext-3" data-look="classic" transform="translate(406.5546875, 424)"><g class="basic label-container outer-path"><path d="M-146.68359375 -108 L146.68359375 -108 L146.68359375 108 L-146.68359375 108" stroke="none" stroke-width="0" fill="#ECECFF" style=""/><path d="M-146.68359375 -108 C-66.4847941181465 -108, 13.714005513707008 -108, 146.68359375 -108 M-146.68359375 -108 C-49.33019484616133 -108, 48.02320405767733 -108, 146.68359375 -108 M146.68359375 -108 C146.68359375 -36.80628759319981, 146.68359375 34.387424813600376, 146.68359375 108 M146.68359375 -108 C146.68359375 -51.858495923428286, 146.68359375 4.283008153143427, 146.68359375 108 M146.68359375 108 C33.10022754955605 108, -80.4831386508879 108, -146.68359375 108 M146.68359375 108 C67.87519780711202 108, -10.933198135775967 108, -146.68359375 108 M-146.68359375 108 C-146.68359375 38.039580516685106, -146.68359375 -31.920838966629788, -146.68359375 -108 M-146.68359375 108 C-146.68359375 31.96280841082175, -146.68359375 -44.0743831783565, -146.68359375 -108" stroke="#9370DB" stroke-width="1.3" fill="none" stroke-dasharray="0 0" style=""/></g><g class="annotation-group text" transform="translate(-28.421875, -84)"><g class="label" style="" transform="translate(0,-12)"><foreignObject width="56.84375" height="24"><div xmlns="http://www.w3.org/1999/xhtml" style="display: table-cell; white-space: nowrap; line-height: 1.5; max-width: 100px; text-align: center;"><span class="nodeLabel markdown-node-label" style=""><p>«static»</p></span></div></foreignObject></g></g><g class="label-group text" transform="translate(-71.5546875, -60)"><g class="label" style="font-weight: bolder" transform="translate(0,-12)"><foreignObject width="143.109375" height="24"><div xmlns="http://www.w3.org/1999/xhtml" style="display: table-cell; white-space: nowrap; line-height: 1.5; max-width: 174px; text-align: center;"><span class="nodeLabel markdown-node-label" style=""><p>ParametrosContext</p></span></div></foreignObject></g></g><g class="members-group text" transform="translate(-134.68359375, -12)"><g class="label" style="text-decoration:underline;" transform="translate(0,-12)"><foreignObject width="197.8125" height="24"><div xmlns="http://www.w3.org/1999/xhtml" style="display: table-cell; white-space: nowrap; line-height: 1.5; max-width: 240px; text-align: center;"><span class="nodeLabel markdown-node-label" style=""><p>+decimal MargenEmpleados</p></span></div></foreignObject></g><g class="label" style="text-decoration:underline;" transform="translate(0,12)"><foreignObject width="195.15625" height="24"><div xmlns="http://www.w3.org/1999/xhtml" style="display: table-cell; white-space: nowrap; line-height: 1.5; max-width: 236px; text-align: center;"><span class="nodeLabel markdown-node-label" style=""><p>+decimal MargenMateriales</p></span></div></foreignObject></g><g class="label" style="text-decoration:underline;" transform="translate(0,36)"><foreignObject width="187.140625" height="24"><div xmlns="http://www.w3.org/1999/xhtml" style="display: table-cell; white-space: nowrap; line-height: 1.5; max-width: 228px; text-align: center;"><span class="nodeLabel markdown-node-label" style=""><p>+decimal UtilidadEmpresa</p></span></div></foreignObject></g></g><g class="methods-group text" transform="translate(-134.68359375, 84)"><g class="label" style="text-decoration:underline;" transform="translate(0,-12)"><foreignObject width="147.828125" height="24"><div xmlns="http://www.w3.org/1999/xhtml" style="display: table-cell; white-space: nowrap; line-height: 1.5; max-width: 190px; text-align: center;"><span class="nodeLabel markdown-node-label" style=""><p>+Cargar(Parametros)</p></span></div></foreignObject></g></g><g class="divider" style=""><path d="M-146.68359375 -36 C-40.76937671041911 -35.99963897047266, 65.14484032916178 -35.999277940945326, 146.68359375 -35.999 M-146.68359375 -36 C-61.83761102871526 -35.99971078571041, 23.008371692569483 -35.999421571420825, 146.68359375 -35.999" stroke="#9370DB" stroke-width="1.3" fill="none" stroke-dasharray="0 0" style=""/></g><g class="divider" style=""><path d="M-146.68359375 60 C-39.499227278494445 60.00036535908254, 67.68513919301111 60.00073071816507, 146.68359375 60.001 M-146.68359375 60 C-52.11531962982217 60.00032235464002, 42.452954490355665 60.00064470928004, 146.68359375 60.001" stroke="#9370DB" stroke-width="1.3" fill="none" stroke-dasharray="0 0" style=""/></g></g><g class="node default" id="my-svg-classId-Parametros-4" data-look="classic" transform="translate(406.5546875, 762)"><g class="basic label-container outer-path"><path d="M-142.734375 -120 L142.734375 -120 L142.734375 120 L-142.734375 120" stroke="none" stroke-width="0" fill="#ECECFF" style=""/><path d="M-142.734375 -120 C-56.99807777574357 -120, 28.738219448512865 -120, 142.734375 -120 M-142.734375 -120 C-46.335198250041756 -120, 50.06397849991649 -120, 142.734375 -120 M142.734375 -120 C142.734375 -68.08294889826473, 142.734375 -16.165897796529478, 142.734375 120 M142.734375 -120 C142.734375 -65.68838327229435, 142.734375 -11.37676654458869, 142.734375 120 M142.734375 120 C73.12906758323746 120, 3.523760166474915 120, -142.734375 120 M142.734375 120 C78.52318164385872 120, 14.31198828771744 120, -142.734375 120 M-142.734375 120 C-142.734375 25.311958980816627, -142.734375 -69.37608203836675, -142.734375 -120 M-142.734375 120 C-142.734375 65.82702351566502, -142.734375 11.654047031330037, -142.734375 -120" stroke="#9370DB" stroke-width="1.3" fill="none" stroke-dasharray="0 0" style=""/></g><g class="annotation-group text" transform="translate(0, -96)"/><g class="label-group text" transform="translate(-42.046875, -96)"><g class="label" style="font-weight: bolder" transform="translate(0,-12)"><foreignObject width="84.09375" height="24"><div xmlns="http://www.w3.org/1999/xhtml" style="display: table-cell; white-space: nowrap; line-height: 1.5; max-width: 123px; text-align: center;"><span class="nodeLabel markdown-node-label" style=""><p>Parametros</p></span></div></foreignObject></g></g><g class="members-group text" transform="translate(-130.734375, -48)"><g class="label" style="" transform="translate(0,-12)"><foreignObject width="133.984375" height="24"><div xmlns="http://www.w3.org/1999/xhtml" style="display: table-cell; white-space: nowrap; line-height: 1.5; max-width: 180px; text-align: center;"><span class="nodeLabel markdown-node-label" style=""><p>+Guid IdParametro</p></span></div></foreignObject></g><g class="label" style="" transform="translate(0,12)"><foreignObject width="197.8125" height="24"><div xmlns="http://www.w3.org/1999/xhtml" style="display: table-cell; white-space: nowrap; line-height: 1.5; max-width: 240px; text-align: center;"><span class="nodeLabel markdown-node-label" style=""><p>+decimal MargenEmpleados</p></span></div></foreignObject></g><g class="label" style="" transform="translate(0,36)"><foreignObject width="195.15625" height="24"><div xmlns="http://www.w3.org/1999/xhtml" style="display: table-cell; white-space: nowrap; line-height: 1.5; max-width: 236px; text-align: center;"><span class="nodeLabel markdown-node-label" style=""><p>+decimal MargenMateriales</p></span></div></foreignObject></g><g class="label" style="" transform="translate(0,60)"><foreignObject width="187.140625" height="24"><div xmlns="http://www.w3.org/1999/xhtml" style="display: table-cell; white-space: nowrap; line-height: 1.5; max-width: 228px; text-align: center;"><span class="nodeLabel markdown-node-label" style=""><p>+decimal UtilidadEmpresa</p></span></div></foreignObject></g><g class="label" style="" transform="translate(0,84)"><foreignObject width="219.421875" height="24"><div xmlns="http://www.w3.org/1999/xhtml" style="display: table-cell; white-space: nowrap; line-height: 1.5; max-width: 264px; text-align: center;"><span class="nodeLabel markdown-node-label" style=""><p>+DateTime UltimaModificacion</p></span></div></foreignObject></g><g class="label" style="" transform="translate(0,108)"><foreignObject width="152.828125" height="24"><div xmlns="http://www.w3.org/1999/xhtml" style="display: table-cell; white-space: nowrap; line-height: 1.5; max-width: 205px; text-align: center;"><span class="nodeLabel markdown-node-label" style=""><p>+Guid? ModificadoPor</p></span></div></foreignObject></g></g><g class="methods-group text" transform="translate(-130.734375, 120)"/><g class="divider" style=""><path d="M-142.734375 -72 C-52.973330964577684 -71.99968556612927, 36.78771307084463 -71.99937113225853, 142.734375 -71.999 M-142.734375 -72 C-63.90439851550215 -71.99972385777258, 14.925577968995697 -71.99944771554516, 142.734375 -71.999" stroke="#9370DB" stroke-width="1.3" fill="none" stroke-dasharray="0 0" style=""/></g><g class="divider" style=""><path d="M-142.734375 96 C-38.32509393359791 96.00036574679739, 66.08418713280417 96.00073149359477, 142.734375 96.001 M-142.734375 96 C-80.11088036925729 96.00021937075294, -17.487385738514575 96.0004387415059, 142.734375 96.001" stroke="#9370DB" stroke-width="1.3" fill="none" stroke-dasharray="0 0" style=""/></g></g><g class="node undefined" id="my-svg-note0" data-look="classic" transform="translate(1197.078125, 107)"><g class="basic label-container outer-path"><path d="M-341.96875 -18 L341.96875 -18 L341.96875 18 L-341.96875 18" stroke="none" stroke-width="0" fill="#fff5ad" style="fill:#fff5ad !important;stroke:#aaaa33 !important"/><path d="M-341.96875 -18 C-204.70109366676644 -18, -67.43343733353288 -18, 341.96875 -18 M-341.96875 -18 C-108.57623704716008 -18, 124.81627590567984 -18, 341.96875 -18 M341.96875 -18 C341.96875 -5.004057738174437, 341.96875 7.991884523651127, 341.96875 18 M341.96875 -18 C341.96875 -3.7562999384567934, 341.96875 10.487400123086413, 341.96875 18 M341.96875 18 C74.72239547171085 18, -192.5239590565783 18, -341.96875 18 M341.96875 18 C147.23846410029213 18, -47.49182179941573 18, -341.96875 18 M-341.96875 18 C-341.96875 5.802356003945336, -341.96875 -6.395287992109328, -341.96875 -18 M-341.96875 18 C-341.96875 6.828487150627804, -341.96875 -4.343025698744391, -341.96875 -18" stroke="#aaaa33" stroke-width="1.3" fill="none" stroke-dasharray="0 0" style="fill:#fff5ad !important;stroke:#aaaa33 !important"/></g><g class="label noteLabel" style="text-align:left !important;white-space:nowrap !important" transform="translate(-335.96875, -12)"><rect/><foreignObject width="671.9375" height="24"><div style="text-align: center; white-space: break-spaces; display: table; line-height: 1.5; max-width: 200px; width: 200px;" xmlns="http://www.w3.org/1999/xhtml"><span style="text-align:left !important;white-space:nowrap !important" class="nodeLabel markdown-node-label"><p>Singleton: constructor privado.\nCurrent es la unica instancia.\nInitialize la crea una sola vez</p></span></div></foreignObject></g></g><g class="node undefined" id="my-svg-note1" data-look="classic" transform="translate(406.5546875, 107)"><g class="basic label-container outer-path"><path d="M-398.5546875 -18 L398.5546875 -18 L398.5546875 18 L-398.5546875 18" stroke="none" stroke-width="0" fill="#fff5ad" style="fill:#fff5ad !important;stroke:#aaaa33 !important"/><path d="M-398.5546875 -18 C-169.39913718554575 -18, 59.75641312890849 -18, 398.5546875 -18 M-398.5546875 -18 C-196.48139826220688 -18, 5.591890975586239 -18, 398.5546875 -18 M398.5546875 -18 C398.5546875 -3.8238136419738975, 398.5546875 10.352372716052205, 398.5546875 18 M398.5546875 -18 C398.5546875 -8.3263922343888, 398.5546875 1.3472155312223997, 398.5546875 18 M398.5546875 18 C105.79364889371857 18, -186.96738971256286 18, -398.5546875 18 M398.5546875 18 C139.449782336868 18, -119.655122826264 18, -398.5546875 18 M-398.5546875 18 C-398.5546875 3.6229704333926023, -398.5546875 -10.754059133214795, -398.5546875 -18 M-398.5546875 18 C-398.5546875 4.224051009524269, -398.5546875 -9.551897980951463, -398.5546875 -18" stroke="#aaaa33" stroke-width="1.3" fill="none" stroke-dasharray="0 0" style="fill:#fff5ad !important;stroke:#aaaa33 !important"/></g><g class="label noteLabel" style="text-align:left !important;white-space:nowrap !important" transform="translate(-392.5546875, -12)"><rect/><foreignObject width="785.109375" height="24"><div style="text-align: center; white-space: break-spaces; display: table; line-height: 1.5; max-width: 200px; width: 200px;" xmlns="http://www.w3.org/1999/xhtml"><span style="text-align:left !important;white-space:nowrap !important" class="nodeLabel markdown-node-label"><p>Singleton (clase estatica):\ncache en memoria de los parametros.\nSe refresca al guardar (aplica al instante)</p></span></div></foreignObject></g></g><g class="label edgeLabel" id="LanguageService---LanguageService---1" transform="translate(1342.5914062503725, 762)"><rect width="0.1" height="0.1"/><g class="label" style="" transform="translate(0, 0)"><rect/><foreignObject width="0" height="0"><div xmlns="http://www.w3.org/1999/xhtml" style="display: table-cell; white-space: nowrap; line-height: 1.5; max-width: 10px; text-align: center;"><span class="nodeLabel"></span></div></foreignObject></g></g><g class="label edgeLabel" id="LanguageService---LanguageService---2" transform="translate(1633.3218750003725, 956.0500000007451)"><rect width="0.1" height="0.1"/><g class="label" style="" transform="translate(0, 0)"><rect/><foreignObject width="0" height="0"><div xmlns="http://www.w3.org/1999/xhtml" style="display: table-cell; white-space: nowrap; line-height: 1.5; max-width: 10px; text-align: center;"><span class="nodeLabel"></span></div></foreignObject></g></g></g></g></g><defs><filter id="my-svg-drop-shadow" height="130%" width="130%"><feDropShadow dx="4" dy="4" stdDeviation="0" flood-opacity="0.06" flood-color="#000000"/></filter></defs><defs><filter id="my-svg-drop-shadow-small" height="150%" width="150%"><feDropShadow dx="2" dy="2" stdDeviation="0" flood-opacity="0.06" flood-color="#000000"/></filter></defs></svg>